<svg 
          width="17.182899475097656" 
          height="25" fill="none" 
          xmlns="http://www.w3.org/2000/svg">
          <path d="M 8.61444223054705 0 C 4.71702989293943 0 2.192664873478899 1.5968261286616325 0.21077996358391757 4.444628953933716 C -0.1487415366471959 4.9612305127084255 -0.03790171095982153 5.6695313192903996 0.463611984279523 6.049804762005806 L 2.5699600141072083 7.646923512220383 C 3.0764541899213764 8.030956704169512 3.7971082388287165 7.941162027418613 4.1936414781179545 7.444384694099426 C 5.416737238695622 5.912109278142452 6.3240129285250495 5.029882863163948 8.234511027791115 5.029882863163948 C 9.736659545682171 5.029882863163948 11.594667184142526 5.99663108587265 11.594667184142526 7.453271746635437 C 11.594667184142526 8.554443623870611 10.68563408851726 9.119971003383398 9.202430908019554 9.95151400566101 C 7.472792123755969 10.921240597963333 5.183925022307335 12.128076516091824 5.183925022307335 15.147070586681366 L 5.183925022307335 15.625 C 5.183925022307335 16.272216802462935 5.708583248963645 16.796875 6.355800087347997 16.796875 L 9.89442299087491 16.796875 C 10.54163982925926 16.796875 11.066298055915572 16.272216802462935 11.066298055915572 15.625 L 11.066298055915572 15.343114733695984 C 11.066298055915572 13.250341266393661 17.182899475097656 13.163184002041817 17.182899475097656 7.500000298023224 C 17.182948303227686 3.235156461596489 12.759022377769352 0 8.61444223054705 0 Z M 8.125135753499737 18.235303461551666 C 6.2600966292107785 18.235303461551666 4.7427623371042404 19.752637296915054 4.7427623371042404 21.617676317691803 C 4.7427623371042404 23.482666537165642 6.2600966292107785 25 8.125135753499737 25 C 9.990174877788697 25 11.507508797366183 23.482666164636612 11.507508797366183 21.617627143859863 C 11.507508797366183 19.752588123083115 9.990174877788697 18.235303461551666 8.125135753499737 18.235303461551666 Z" fill="rgb(0,0,0)"/>
        </svg>