<svg 
          width="24.99956703186035" 
          height="24.999557495117188" fill="none" 
          xmlns="http://www.w3.org/2000/svg">
          <path d="M 24.28662244595879 17.665572506584848 L 18.817872302532624 15.321822500996813 C 18.584251472113266 15.222258611088312 18.3246096279751 15.201280261544479 18.078034100203084 15.262043512492928 C 17.831458572431067 15.322806763441378 17.61129437567912 15.462024220808859 17.450684766676083 15.658737756392991 L 15.028809405135553 18.617720946354986 C 11.227901946923877 16.825629810871906 8.169044768478987 13.766773450415176 6.376953590268384 9.965866082825762 L 9.335937595837336 7.543990779028235 C 9.533045853912105 7.383677148169417 9.67255611660322 7.163509114961054 9.733347850009634 6.916818039219238 C 9.79413958341605 6.670126963477421 9.772903041643756 6.410345799672209 9.67285211420826 6.17680364829758 L 7.329102052739904 0.7080533558620593 C 7.219294089170957 0.4562997270078845 7.025082523775985 0.25075133949698397 6.779956995441481 0.12685153663600393 C 6.534831467106977 0.002951733775023904 6.254156167730771 -0.03153343576074301 5.986328207494618 0.029342412087244824 L 0.9082031674454399 1.2012174381643264 C 0.649984989598295 1.2608454592785066 0.41960211174208684 1.406236368790296 0.2546558456227489 1.613660719367717 C 0.08970957950341099 1.8210850699451382 -0.00005948291478002775 2.078293804377808 2.9571321167937497e-8 2.3433072548350067 C 2.957132129804176e-8 14.867721347196067 10.151367155711586 24.999557495117188 22.65625059419411 24.999557495117188 C 22.92134775358842 24.99972747253782 23.17867016207674 24.91000829150039 23.38619442523144 24.74505311190007 C 23.59371868838614 24.58009793229975 23.73918163334665 24.349653872043096 23.7988284511367 24.0913540699286 L 24.970703481870878 19.013229057821192 C 25.031187535394402 18.74409736877842 24.995970892625607 18.46229952970922 24.871114548652166 18.216329856435422 C 24.746258204678725 17.970360183161624 24.53957222499542 17.77560244827191 24.28662244595879 17.665572506584848 Z" fill="rgb(0,0,0)"/>
        </svg>